<svg xmlns="http://www.w3.org/2000/svg" xmlns:xlink="http://www.w3.org/1999/xlink" version="1.1" width="256" height="256" viewBox="0 0 256 256" xml:space="preserve">

<defs>
</defs>
<g style="stroke: none; stroke-width: 0; stroke-dasharray: none; stroke-linecap: butt; stroke-linejoin: miter; stroke-miterlimit: 10; fill: none; fill-rule: nonzero; opacity: 1;" transform="translate(1.4065934065934016 1.4065934065934016) scale(2.81 2.81)" >
	<path d="M 79.967 42.914 c -1.612 -8.283 -8.782 -14.228 -17.282 -14.228 c -3.277 0 -6.442 0.901 -9.223 2.617 c -4.063 -7.597 -12.083 -12.445 -20.744 -12.445 c -12.963 0 -23.509 10.546 -23.509 23.509 c 0 0.277 0.006 0.552 0.018 0.826 C 3.677 45.346 0 50.67 0 56.674 c 0 7.978 6.49 14.468 14.468 14.468 h 61.064 C 83.51 71.142 90 64.651 90 56.674 C 90 50.395 85.905 44.826 79.967 42.914 z" style="stroke: none; stroke-width: 1; stroke-dasharray: none; stroke-linecap: butt; stroke-linejoin: miter; stroke-miterlimit: 10; fill: rgb(0,0,0); fill-rule: nonzero; opacity: 1;" transform=" matrix(1 0 0 1 0 0) " stroke-linecap="round" />
</g>
</svg>