<svg xmlns="http://www.w3.org/2000/svg" xmlns:xlink="http://www.w3.org/1999/xlink" version="1.1" width="256" height="256" viewBox="0 0 256 256" xml:space="preserve">

<defs>
</defs>
<g style="stroke: none; stroke-width: 0; stroke-dasharray: none; stroke-linecap: butt; stroke-linejoin: miter; stroke-miterlimit: 10; fill: none; fill-rule: nonzero; opacity: 1;" transform="translate(1.4065934065934016 1.4065934065934016) scale(2.81 2.81)" >
	<path d="M 10.733 71.319 c -0.11 0 -0.223 -0.018 -0.334 -0.056 c -0.534 -0.184 -0.817 -0.766 -0.633 -1.3 l 3.291 -9.546 c 0.183 -0.533 0.763 -0.819 1.3 -0.633 c 0.534 0.184 0.817 0.766 0.633 1.3 l -3.291 9.546 C 11.554 71.054 11.157 71.319 10.733 71.319 z" style="stroke: none; stroke-width: 1; stroke-dasharray: none; stroke-linecap: butt; stroke-linejoin: miter; stroke-miterlimit: 10; fill: rgb(0,0,0); fill-rule: nonzero; opacity: 1;" transform=" matrix(1 0 0 1 0 0) " stroke-linecap="round" />
	<path d="M 4.385 89.728 c -0.11 0 -0.223 -0.018 -0.334 -0.056 c -0.534 -0.184 -0.817 -0.766 -0.633 -1.3 l 3.291 -9.546 c 0.183 -0.534 0.763 -0.819 1.3 -0.633 c 0.534 0.184 0.817 0.766 0.633 1.3 l -3.291 9.546 C 5.206 89.463 4.81 89.728 4.385 89.728 z" style="stroke: none; stroke-width: 1; stroke-dasharray: none; stroke-linecap: butt; stroke-linejoin: miter; stroke-miterlimit: 10; fill: rgb(0,0,0); fill-rule: nonzero; opacity: 1;" transform=" matrix(1 0 0 1 0 0) " stroke-linecap="round" />
	<path d="M 17.433 81.547 c -0.11 0 -0.223 -0.018 -0.334 -0.056 c -0.534 -0.184 -0.817 -0.766 -0.633 -1.3 l 3.291 -9.546 c 0.183 -0.534 0.761 -0.82 1.3 -0.633 c 0.534 0.184 0.817 0.766 0.633 1.3 L 18.4 80.857 C 18.254 81.281 17.858 81.547 17.433 81.547 z" style="stroke: none; stroke-width: 1; stroke-dasharray: none; stroke-linecap: butt; stroke-linejoin: miter; stroke-miterlimit: 10; fill: rgb(0,0,0); fill-rule: nonzero; opacity: 1;" transform=" matrix(1 0 0 1 0 0) " stroke-linecap="round" />
	<path d="M 24.84 89.728 c -0.11 0 -0.223 -0.018 -0.334 -0.056 c -0.534 -0.184 -0.817 -0.766 -0.633 -1.3 l 3.291 -9.546 c 0.183 -0.534 0.763 -0.819 1.3 -0.633 c 0.534 0.184 0.817 0.766 0.633 1.3 l -3.291 9.546 C 25.661 89.463 25.264 89.728 24.84 89.728 z" style="stroke: none; stroke-width: 1; stroke-dasharray: none; stroke-linecap: butt; stroke-linejoin: miter; stroke-miterlimit: 10; fill: rgb(0,0,0); fill-rule: nonzero; opacity: 1;" transform=" matrix(1 0 0 1 0 0) " stroke-linecap="round" />
	<path d="M 37.888 81.547 c -0.11 0 -0.223 -0.018 -0.334 -0.056 c -0.534 -0.184 -0.817 -0.766 -0.633 -1.3 l 3.291 -9.546 c 0.183 -0.534 0.761 -0.82 1.3 -0.633 c 0.534 0.184 0.817 0.766 0.633 1.3 l -3.291 9.546 C 38.709 81.281 38.312 81.547 37.888 81.547 z" style="stroke: none; stroke-width: 1; stroke-dasharray: none; stroke-linecap: butt; stroke-linejoin: miter; stroke-miterlimit: 10; fill: rgb(0,0,0); fill-rule: nonzero; opacity: 1;" transform=" matrix(1 0 0 1 0 0) " stroke-linecap="round" />
	<path d="M 51.642 71.319 c -0.111 0 -0.223 -0.018 -0.334 -0.056 c -0.533 -0.184 -0.817 -0.766 -0.633 -1.3 l 3.291 -9.546 c 0.184 -0.534 0.764 -0.816 1.3 -0.633 c 0.533 0.184 0.817 0.766 0.633 1.3 l -3.291 9.546 C 52.463 71.054 52.066 71.319 51.642 71.319 z" style="stroke: none; stroke-width: 1; stroke-dasharray: none; stroke-linecap: butt; stroke-linejoin: miter; stroke-miterlimit: 10; fill: rgb(0,0,0); fill-rule: nonzero; opacity: 1;" transform=" matrix(1 0 0 1 0 0) " stroke-linecap="round" />
	<path d="M 45.294 89.728 c -0.11 0 -0.223 -0.018 -0.334 -0.056 c -0.534 -0.184 -0.817 -0.766 -0.633 -1.3 l 3.291 -9.546 c 0.184 -0.534 0.765 -0.816 1.3 -0.633 c 0.533 0.184 0.817 0.766 0.633 1.3 l -3.291 9.546 C 46.115 89.463 45.719 89.728 45.294 89.728 z" style="stroke: none; stroke-width: 1; stroke-dasharray: none; stroke-linecap: butt; stroke-linejoin: miter; stroke-miterlimit: 10; fill: rgb(0,0,0); fill-rule: nonzero; opacity: 1;" transform=" matrix(1 0 0 1 0 0) " stroke-linecap="round" />
	<path d="M 58.342 81.547 c -0.111 0 -0.223 -0.018 -0.334 -0.056 c -0.533 -0.184 -0.817 -0.766 -0.633 -1.3 l 3.292 -9.546 c 0.184 -0.533 0.764 -0.816 1.3 -0.633 c 0.533 0.184 0.817 0.766 0.633 1.3 l -3.292 9.546 C 59.163 81.281 58.767 81.547 58.342 81.547 z" style="stroke: none; stroke-width: 1; stroke-dasharray: none; stroke-linecap: butt; stroke-linejoin: miter; stroke-miterlimit: 10; fill: rgb(0,0,0); fill-rule: nonzero; opacity: 1;" transform=" matrix(1 0 0 1 0 0) " stroke-linecap="round" />
	<path d="M 72.096 71.319 c -0.111 0 -0.223 -0.018 -0.334 -0.056 c -0.533 -0.184 -0.817 -0.766 -0.633 -1.3 l 3.291 -9.546 c 0.184 -0.534 0.766 -0.816 1.3 -0.633 c 0.533 0.184 0.817 0.766 0.633 1.3 l -3.291 9.546 C 72.917 71.054 72.521 71.319 72.096 71.319 z" style="stroke: none; stroke-width: 1; stroke-dasharray: none; stroke-linecap: butt; stroke-linejoin: miter; stroke-miterlimit: 10; fill: rgb(0,0,0); fill-rule: nonzero; opacity: 1;" transform=" matrix(1 0 0 1 0 0) " stroke-linecap="round" />
	<path d="M 65.749 89.728 c -0.111 0 -0.223 -0.018 -0.334 -0.056 c -0.533 -0.184 -0.817 -0.766 -0.633 -1.3 l 3.291 -9.546 c 0.184 -0.534 0.766 -0.816 1.3 -0.633 c 0.533 0.184 0.817 0.766 0.633 1.3 l -3.291 9.546 C 66.57 89.463 66.174 89.728 65.749 89.728 z" style="stroke: none; stroke-width: 1; stroke-dasharray: none; stroke-linecap: butt; stroke-linejoin: miter; stroke-miterlimit: 10; fill: rgb(0,0,0); fill-rule: nonzero; opacity: 1;" transform=" matrix(1 0 0 1 0 0) " stroke-linecap="round" />
	<path d="M 79.864 24.651 c -1.289 -8.117 -8.299 -14.329 -16.778 -14.329 c -3.665 0 -7.05 1.17 -9.827 3.142 C 49.572 5.667 41.637 0.272 32.439 0.272 c -12.714 0 -23.021 10.307 -23.021 23.021 c 0 0.522 0.024 1.038 0.058 1.55 C 3.976 26.65 0 31.819 0 37.924 c 0 7.607 6.167 13.774 13.774 13.774 h 21.479 l 1.291 -3.686 h -4.523 c -0.667 0 -1.291 -0.325 -1.674 -0.87 c -0.383 -0.545 -0.476 -1.243 -0.25 -1.87 l 5.361 -14.849 c 0.293 -0.81 1.062 -1.351 1.924 -1.351 h 17.221 c 0.749 0 1.438 0.409 1.797 1.067 c 0.358 0.658 0.328 1.459 -0.078 2.088 l -3.444 5.332 l 5.397 -0.122 c 0.817 -0.041 1.576 0.457 1.913 1.207 c 0.337 0.751 0.191 1.629 -0.37 2.232 L 49.74 51.697 h 26.487 C 83.833 51.697 90 45.531 90 37.924 C 90 31.578 85.703 26.249 79.864 24.651 z" style="stroke: none; stroke-width: 1; stroke-dasharray: none; stroke-linecap: butt; stroke-linejoin: miter; stroke-miterlimit: 10; fill: rgb(0,0,0); fill-rule: nonzero; opacity: 1;" transform=" matrix(1 0 0 1 0 0) " stroke-linecap="round" />
	<path d="M 49.112 41.737 c -0.756 0.025 -1.462 -0.386 -1.831 -1.046 c -0.371 -0.661 -0.345 -1.472 0.066 -2.108 l 3.5 -5.419 H 38.818 L 34.934 43.92 h 4.493 c 0.663 0 1.285 0.321 1.668 0.862 c 0.384 0.541 0.481 1.233 0.262 1.86 l -4.52 12.906 l 16.681 -17.911 L 49.112 41.737 z" style="stroke: none; stroke-width: 1; stroke-dasharray: none; stroke-linecap: butt; stroke-linejoin: miter; stroke-miterlimit: 10; fill: rgb(0,0,0); fill-rule: nonzero; opacity: 1;" transform=" matrix(1 0 0 1 0 0) " stroke-linecap="round" />
</g>
</svg>