<svg xmlns="http://www.w3.org/2000/svg" xmlns:xlink="http://www.w3.org/1999/xlink" version="1.1" width="256" height="256" viewBox="0 0 256 256" xml:space="preserve">

<defs>
</defs>
<g style="stroke: none; stroke-width: 0; stroke-dasharray: none; stroke-linecap: butt; stroke-linejoin: miter; stroke-miterlimit: 10; fill: none; fill-rule: nonzero; opacity: 1;" transform="translate(1.4065934065934016 1.4065934065934016) scale(2.81 2.81)" >
	<path d="M 79.967 24.632 c -1.613 -8.282 -8.783 -14.228 -17.282 -14.228 c -3.278 0 -6.443 0.901 -9.223 2.617 C 49.398 5.424 41.379 0.576 32.718 0.576 c -12.963 0 -23.509 10.546 -23.509 23.51 c 0 0.276 0.006 0.552 0.018 0.826 C 3.677 27.064 0 32.387 0 38.392 c 0 7.978 6.49 14.468 14.468 14.468 h 61.064 C 83.51 52.859 90 46.369 90 38.392 C 90 32.112 85.905 26.544 79.967 24.632 z" style="stroke: none; stroke-width: 1; stroke-dasharray: none; stroke-linecap: butt; stroke-linejoin: miter; stroke-miterlimit: 10; fill: rgb(0,0,0); fill-rule: nonzero; opacity: 1;" transform=" matrix(1 0 0 1 0 0) " stroke-linecap="round" />
	<path d="M 19.329 64.378 c 0 0.553 0.448 1 1 1 h 2.939 l -1.47 2.546 c -0.276 0.479 -0.112 1.09 0.366 1.366 c 0.158 0.091 0.33 0.134 0.499 0.134 c 0.346 0 0.682 -0.18 0.867 -0.5 L 25 66.379 l 1.469 2.545 c 0.186 0.321 0.521 0.5 0.867 0.5 c 0.169 0 0.341 -0.043 0.499 -0.134 c 0.478 -0.276 0.642 -0.888 0.366 -1.366 l -1.47 -2.546 h 2.939 c 0.552 0 1 -0.447 1 -1 s -0.448 -1 -1 -1 h -2.938 l 1.469 -2.545 c 0.276 -0.479 0.112 -1.09 -0.366 -1.366 c -0.48 -0.277 -1.09 -0.111 -1.366 0.366 L 25 62.378 l -1.469 -2.545 c -0.277 -0.479 -0.888 -0.644 -1.366 -0.366 c -0.478 0.276 -0.642 0.888 -0.366 1.366 l 1.469 2.545 h -2.938 C 19.777 63.378 19.329 63.825 19.329 64.378 z" style="stroke: none; stroke-width: 1; stroke-dasharray: none; stroke-linecap: butt; stroke-linejoin: miter; stroke-miterlimit: 10; fill: rgb(0,0,0); fill-rule: nonzero; opacity: 1;" transform=" matrix(1 0 0 1 0 0) " stroke-linecap="round" />
	<path d="M 29.671 83.378 h -2.938 l 1.469 -2.545 c 0.276 -0.479 0.112 -1.09 -0.366 -1.366 c -0.48 -0.277 -1.09 -0.111 -1.366 0.366 L 25 82.378 l -1.469 -2.545 c -0.277 -0.479 -0.888 -0.644 -1.366 -0.366 c -0.478 0.276 -0.642 0.888 -0.366 1.366 l 1.469 2.545 h -2.938 c -0.552 0 -1 0.447 -1 1 s 0.448 1 1 1 h 2.939 l -1.47 2.546 c -0.276 0.479 -0.112 1.09 0.366 1.366 c 0.158 0.091 0.33 0.134 0.499 0.134 c 0.346 0 0.682 -0.18 0.867 -0.5 L 25 86.379 l 1.469 2.545 c 0.186 0.321 0.521 0.5 0.867 0.5 c 0.169 0 0.341 -0.043 0.499 -0.134 c 0.478 -0.276 0.642 -0.888 0.366 -1.366 l -1.47 -2.546 h 2.939 c 0.552 0 1 -0.447 1 -1 S 30.223 83.378 29.671 83.378 z" style="stroke: none; stroke-width: 1; stroke-dasharray: none; stroke-linecap: butt; stroke-linejoin: miter; stroke-miterlimit: 10; fill: rgb(0,0,0); fill-rule: nonzero; opacity: 1;" transform=" matrix(1 0 0 1 0 0) " stroke-linecap="round" />
	<path d="M 36.732 75.378 h 2.939 c 0.552 0 1 -0.447 1 -1 s -0.448 -1 -1 -1 h -2.938 l 1.469 -2.545 c 0.276 -0.479 0.112 -1.09 -0.366 -1.366 c -0.48 -0.277 -1.09 -0.111 -1.366 0.366 L 35 72.378 l -1.469 -2.545 c -0.277 -0.479 -0.888 -0.644 -1.366 -0.366 c -0.478 0.276 -0.642 0.888 -0.366 1.366 l 1.469 2.545 h -2.938 c -0.552 0 -1 0.447 -1 1 s 0.448 1 1 1 h 2.939 l -1.47 2.546 c -0.276 0.479 -0.112 1.09 0.366 1.366 c 0.158 0.091 0.33 0.134 0.499 0.134 c 0.346 0 0.682 -0.18 0.867 -0.5 L 35 76.379 l 1.469 2.545 c 0.186 0.321 0.521 0.5 0.867 0.5 c 0.169 0 0.341 -0.043 0.499 -0.134 c 0.478 -0.276 0.642 -0.888 0.366 -1.366 L 36.732 75.378 z" style="stroke: none; stroke-width: 1; stroke-dasharray: none; stroke-linecap: butt; stroke-linejoin: miter; stroke-miterlimit: 10; fill: rgb(0,0,0); fill-rule: nonzero; opacity: 1;" transform=" matrix(1 0 0 1 0 0) " stroke-linecap="round" />
	<path d="M 39.329 64.378 c 0 0.553 0.448 1 1 1 h 2.939 l -1.47 2.546 c -0.276 0.479 -0.112 1.09 0.366 1.366 c 0.158 0.091 0.33 0.134 0.499 0.134 c 0.346 0 0.682 -0.179 0.867 -0.5 L 45 66.379 l 1.469 2.545 c 0.186 0.321 0.521 0.5 0.867 0.5 c 0.17 0 0.342 -0.043 0.499 -0.134 c 0.479 -0.276 0.643 -0.888 0.366 -1.366 l -1.47 -2.546 h 2.939 c 0.553 0 1 -0.447 1 -1 s -0.447 -1 -1 -1 h -2.938 l 1.469 -2.545 c 0.276 -0.479 0.112 -1.09 -0.366 -1.366 c -0.478 -0.276 -1.09 -0.113 -1.366 0.366 L 45 62.378 l -1.469 -2.545 c -0.277 -0.479 -0.89 -0.644 -1.366 -0.366 c -0.479 0.276 -0.642 0.888 -0.366 1.366 l 1.469 2.545 h -2.939 C 39.777 63.378 39.329 63.825 39.329 64.378 z" style="stroke: none; stroke-width: 1; stroke-dasharray: none; stroke-linecap: butt; stroke-linejoin: miter; stroke-miterlimit: 10; fill: rgb(0,0,0); fill-rule: nonzero; opacity: 1;" transform=" matrix(1 0 0 1 0 0) " stroke-linecap="round" />
	<path d="M 49.671 83.378 h -2.938 l 1.469 -2.545 c 0.276 -0.479 0.112 -1.09 -0.366 -1.366 c -0.478 -0.276 -1.09 -0.113 -1.366 0.366 L 45 82.378 l -1.469 -2.545 c -0.277 -0.479 -0.89 -0.644 -1.366 -0.366 c -0.479 0.276 -0.642 0.888 -0.366 1.366 l 1.469 2.545 h -2.939 c -0.552 0 -1 0.447 -1 1 s 0.448 1 1 1 h 2.939 l -1.47 2.546 c -0.276 0.479 -0.112 1.09 0.366 1.366 c 0.158 0.091 0.33 0.134 0.499 0.134 c 0.346 0 0.682 -0.179 0.867 -0.5 L 45 86.379 l 1.469 2.545 c 0.186 0.321 0.521 0.5 0.867 0.5 c 0.17 0 0.342 -0.043 0.499 -0.134 c 0.479 -0.276 0.643 -0.888 0.366 -1.366 l -1.47 -2.546 h 2.939 c 0.553 0 1 -0.447 1 -1 S 50.224 83.378 49.671 83.378 z" style="stroke: none; stroke-width: 1; stroke-dasharray: none; stroke-linecap: butt; stroke-linejoin: miter; stroke-miterlimit: 10; fill: rgb(0,0,0); fill-rule: nonzero; opacity: 1;" transform=" matrix(1 0 0 1 0 0) " stroke-linecap="round" />
	<path d="M 56.732 75.378 h 2.939 c 0.553 0 1 -0.447 1 -1 s -0.447 -1 -1 -1 h -2.938 l 1.469 -2.545 c 0.276 -0.479 0.112 -1.09 -0.366 -1.366 s -1.09 -0.113 -1.366 0.366 L 55 72.378 l -1.47 -2.545 c -0.277 -0.479 -0.89 -0.643 -1.366 -0.366 c -0.479 0.276 -0.643 0.888 -0.366 1.366 l 1.469 2.545 h -2.938 c -0.553 0 -1 0.447 -1 1 s 0.447 1 1 1 h 2.939 l -1.47 2.546 c -0.276 0.479 -0.112 1.09 0.366 1.366 c 0.157 0.091 0.329 0.134 0.499 0.134 c 0.346 0 0.682 -0.179 0.867 -0.5 L 55 76.379 l 1.47 2.545 c 0.186 0.321 0.521 0.5 0.867 0.5 c 0.17 0 0.342 -0.043 0.499 -0.134 c 0.479 -0.276 0.643 -0.888 0.366 -1.366 L 56.732 75.378 z" style="stroke: none; stroke-width: 1; stroke-dasharray: none; stroke-linecap: butt; stroke-linejoin: miter; stroke-miterlimit: 10; fill: rgb(0,0,0); fill-rule: nonzero; opacity: 1;" transform=" matrix(1 0 0 1 0 0) " stroke-linecap="round" />
	<path d="M 69.671 63.378 h -2.938 l 1.469 -2.545 c 0.276 -0.479 0.112 -1.09 -0.366 -1.366 s -1.089 -0.113 -1.366 0.366 L 65 62.378 l -1.47 -2.545 c -0.277 -0.479 -0.891 -0.643 -1.366 -0.366 c -0.479 0.276 -0.643 0.888 -0.366 1.366 l 1.469 2.545 h -2.938 c -0.553 0 -1 0.447 -1 1 s 0.447 1 1 1 h 2.939 l -1.47 2.546 c -0.276 0.479 -0.112 1.09 0.366 1.366 c 0.157 0.091 0.329 0.134 0.499 0.134 c 0.346 0 0.682 -0.179 0.867 -0.5 L 65 66.379 l 1.47 2.545 c 0.186 0.321 0.521 0.5 0.867 0.5 c 0.17 0 0.342 -0.043 0.499 -0.134 c 0.479 -0.276 0.643 -0.888 0.366 -1.366 l -1.47 -2.546 h 2.939 c 0.553 0 1 -0.447 1 -1 S 70.224 63.378 69.671 63.378 z" style="stroke: none; stroke-width: 1; stroke-dasharray: none; stroke-linecap: butt; stroke-linejoin: miter; stroke-miterlimit: 10; fill: rgb(0,0,0); fill-rule: nonzero; opacity: 1;" transform=" matrix(1 0 0 1 0 0) " stroke-linecap="round" />
	<path d="M 69.671 83.378 h -2.938 l 1.469 -2.545 c 0.276 -0.479 0.112 -1.09 -0.366 -1.366 s -1.089 -0.113 -1.366 0.366 L 65 82.378 l -1.47 -2.545 c -0.277 -0.479 -0.891 -0.643 -1.366 -0.366 c -0.479 0.276 -0.643 0.888 -0.366 1.366 l 1.469 2.545 h -2.938 c -0.553 0 -1 0.447 -1 1 s 0.447 1 1 1 h 2.939 l -1.47 2.546 c -0.276 0.479 -0.112 1.09 0.366 1.366 c 0.157 0.091 0.329 0.134 0.499 0.134 c 0.346 0 0.682 -0.179 0.867 -0.5 L 65 86.379 l 1.47 2.545 c 0.186 0.321 0.521 0.5 0.867 0.5 c 0.17 0 0.342 -0.043 0.499 -0.134 c 0.479 -0.276 0.643 -0.888 0.366 -1.366 l -1.47 -2.546 h 2.939 c 0.553 0 1 -0.447 1 -1 S 70.224 83.378 69.671 83.378 z" style="stroke: none; stroke-width: 1; stroke-dasharray: none; stroke-linecap: butt; stroke-linejoin: miter; stroke-miterlimit: 10; fill: rgb(0,0,0); fill-rule: nonzero; opacity: 1;" transform=" matrix(1 0 0 1 0 0) " stroke-linecap="round" />
</g>
</svg>